HIERARCHY
ROOT Pelvis
{
	OFFSET 0.000000 0.000000 0.000000
	CHANNELS 6 Xposition Yposition Zposition Xrotation Yrotation Zrotation
	JOINT LeftUpLeg_virtual
	{
		OFFSET 0.000000 0.000000 0.000000
		CHANNELS 3 Xrotation Yrotation Zrotation
		JOINT LeftUpLeg
		{
			OFFSET 18.735201 -5.666702 -4.541200
			CHANNELS 3 Xrotation Yrotation Zrotation
			JOINT LeftLeg
			{
				OFFSET -0.021200 -31.938179 0.493100
				CHANNELS 3 Xrotation Yrotation Zrotation
				JOINT LeftFoot
				{
					OFFSET 0.021200 -31.938179 -4.336299
					CHANNELS 3 Xrotation Yrotation Zrotation
					JOINT LeftToeBase
					{
						OFFSET 0.943001 -26.722000 15.023500
						CHANNELS 3 Xrotation Yrotation Zrotation
						End Site
						{
							OFFSET 0 0 0
						}
					}
				}
			}
		}
	}
	JOINT RightUpLeg_virtual
	{
		OFFSET 0.000000 0.000000 0.000000
		CHANNELS 3 Xrotation Yrotation Zrotation
		JOINT RightUpLeg
		{
			OFFSET -18.735201 -5.666702 -4.541200
			CHANNELS 3 Xrotation Yrotation Zrotation
			JOINT RightLeg
			{
				OFFSET 0.018946 -31.938133 0.493100
				CHANNELS 3 Xrotation Yrotation Zrotation
				JOINT RightFoot
				{
					OFFSET -0.018946 -31.938126 -4.336299
					CHANNELS 3 Xrotation Yrotation Zrotation
					JOINT RightToeBase
					{
						OFFSET -0.943001 -26.722004 15.023500
						CHANNELS 3 Xrotation Yrotation Zrotation
						End Site
						{
							OFFSET 0 0 0
						}
					}
				}
			}
		}
	}
	JOINT Hips_virtual
	{
		OFFSET 0.000000 0.000000 0.000000
		CHANNELS 3 Xrotation Yrotation Zrotation
		JOINT Hips
		{
			OFFSET -0.000000 -0.000000 -0.000000
			CHANNELS 3 Xrotation Yrotation Zrotation
			JOINT Spine
			{
				OFFSET 0.000000 10.199997 -0.299500
				CHANNELS 3 Xrotation Yrotation Zrotation
				JOINT Spine1
				{
					OFFSET 0.000000 11.900002 -1.516600
					CHANNELS 3 Xrotation Yrotation Zrotation
					JOINT Spine2
					{
						OFFSET 0.000000 13.600006 -2.842500
						CHANNELS 3 Xrotation Yrotation Zrotation
						JOINT Neck_virtual
						{
							OFFSET 0.000000 0.000000 0.000000
							CHANNELS 3 Xrotation Yrotation Zrotation
							JOINT Neck
							{
								OFFSET 0.000000 9.624100 -2.890100
								CHANNELS 3 Xrotation Yrotation Zrotation
								JOINT Head
								{
									OFFSET 0.000000 14.068802 -1.351900
									CHANNELS 3 Xrotation Yrotation Zrotation
									End Site
									{
										OFFSET 0 0 0
									}
								}
							}
						}
						JOINT LeftShoulder_virtual
						{
							OFFSET 0.000000 0.000000 0.000000
							CHANNELS 3 Xrotation Yrotation Zrotation
							JOINT LeftShoulder
							{
								OFFSET 15.263000 10.923401 -0.547700
								CHANNELS 3 Xrotation Yrotation Zrotation
								JOINT LeftArm
								{
									OFFSET 25.438599 -2.830597 -13.032500
									CHANNELS 3 Xrotation Yrotation Zrotation
									JOINT LeftForeArm
									{
										OFFSET 29.960503 0.000000 0.000000
										CHANNELS 3 Xrotation Yrotation Zrotation
										JOINT LeftHand
										{
											OFFSET 27.849251 0.000000 0.000000
											CHANNELS 3 Xrotation Yrotation Zrotation
											End Site
											{
												OFFSET 0 0 0
											}
										}
									}
								}
							}
						}
						JOINT RightShoulder_virtual
						{
							OFFSET 0.000000 0.000000 0.000000
							CHANNELS 3 Xrotation Yrotation Zrotation
							JOINT RightShoulder
							{
								OFFSET -15.263000 10.923401 -0.547700
								CHANNELS 3 Xrotation Yrotation Zrotation
								JOINT RightArm
								{
									OFFSET -25.438599 -2.830597 -13.032500
									CHANNELS 3 Xrotation Yrotation Zrotation
									JOINT RightForeArm
									{
										OFFSET -29.960503 0.000000 0.000000
										CHANNELS 3 Xrotation Yrotation Zrotation
										JOINT RightHand
										{
											OFFSET -27.849251 0.000000 0.000000
											CHANNELS 3 Xrotation Yrotation Zrotation
											End Site
											{
												OFFSET 0 0 0
											}
										}
									}
								}
							}
						}
					}
				}
			}
		}
	}
}
MOTION
Frames: 9
Frame Time: 0.03333333
-2.349621 80.737442 1.717461 0.000000 0.000000 0.000000 0.936416 -37.608220 3.196709 -43.234210 -0.858742 18.258573 47.638985 -8.876325 -1.156673 -7.086118 -7.889375 -13.240499 0.000000 0.000000 0.000000 5.794871 -40.003008 -2.868613 -25.816298 -14.811390 -23.552374 47.705921 -1.210312 -0.966889 -10.212444 -4.089821 9.583642 0.000000 0.000000 0.000000 -2.046195 -19.403900 0.491015 -2.560890 -16.342792 -0.785060 7.492434 3.846770 -1.585897 2.704680 1.991443 -1.172070 0.000000 0.000000 0.000000 3.508109 2.734700 -0.014014 -0.073016 2.077770 0.051782 0.000000 0.000000 0.000000 2.475475 1.949197 -0.564825 0.755337 2.213772 -6.164353 -46.039693 -15.074677 -59.466058 -43.185418 -77.689174 -39.381699 0.000000 0.000000 0.000000 3.197846 1.481496 -1.619144 2.137747 12.731712 -1.899280 -34.553486 36.961186 65.588824 -171.517101 69.112150 173.535682 0.000000 0.000000 0.000000 
-1.798860 80.832794 1.108150 0.000000 0.000000 0.000000 0.681805 -36.945490 3.211413 -43.364997 -0.800147 18.345828 47.830418 -9.813684 -1.351256 -7.295609 -8.573230 -14.292726 0.000000 0.000000 0.000000 6.239807 -39.163915 -3.275685 -25.012815 -14.564356 -23.855805 47.878093 -0.637685 -0.568836 -10.456052 -3.832682 10.509702 0.000000 0.000000 0.000000 -3.308952 -20.106373 -0.226915 -1.387904 -13.232239 -0.133530 7.993735 3.852972 -2.115772 3.002283 2.318493 -1.129884 0.000000 0.000000 0.000000 3.710432 2.680943 -0.304597 0.067035 2.255708 0.016338 0.000000 0.000000 0.000000 2.073730 1.818089 -0.527108 1.391838 3.073653 -6.002744 -48.549128 -15.472146 -60.268339 -50.185935 -79.559915 -46.469950 0.000000 0.000000 0.000000 3.021383 1.343809 -1.721396 2.561095 12.148533 -1.671791 -35.968302 38.344375 66.336587 -171.836686 64.280604 173.700303 0.000000 0.000000 0.000000 
-1.274037 80.227264 2.045198 0.000000 0.000000 0.000000 0.355659 -35.675099 3.263831 -43.754226 -0.592275 18.608394 46.794220 -9.704566 -1.375508 -8.311519 -8.299471 -14.207854 0.000000 0.000000 0.000000 6.207633 -40.424563 -3.258324 -24.949359 -14.917987 -23.913737 46.447749 -0.933224 -0.409452 -11.569127 -4.257021 10.419105 0.000000 0.000000 0.000000 -1.228512 -20.382063 1.225159 -3.570829 -12.328544 -1.398888 9.025328 3.773618 -2.870919 2.601963 2.253273 -0.991553 0.000000 0.000000 0.000000 4.254436 2.554778 -0.370711 0.169068 2.330760 -0.106628 0.000000 0.000000 0.000000 1.876756 2.071813 -0.475399 1.326283 2.619608 -6.475847 -51.625391 -16.823743 -59.816338 -50.884930 -79.582687 -46.567571 0.000000 0.000000 0.000000 2.764365 1.261539 -1.686096 2.799337 11.147923 -1.658041 -34.327199 36.796548 65.020751 -171.282812 65.216948 172.329129 0.000000 0.000000 0.000000 
-2.223652 80.208321 1.908272 0.000000 0.000000 0.000000 0.893543 -34.303443 3.462080 -43.437080 -0.120230 18.954509 47.587079 -9.782145 -1.538047 -7.932452 -8.239339 -14.576626 0.000000 0.000000 0.000000 6.371125 -41.390830 -3.165928 -24.740818 -15.211345 -23.886555 47.325950 -1.125479 -0.327316 -11.097216 -4.418414 10.378177 0.000000 0.000000 0.000000 -2.471163 -20.588234 0.531598 -0.546334 -13.303893 -1.025201 7.879253 3.244828 -2.271239 2.707789 2.407773 -1.175497 0.000000 0.000000 0.000000 3.777908 2.374218 -0.091700 -0.011645 2.302604 0.022727 0.000000 0.000000 0.000000 2.205097 1.947938 -0.718916 1.141787 3.606682 -6.290570 -52.075480 -17.774847 -59.266829 -55.082839 -80.404290 -50.563808 0.000000 0.000000 0.000000 2.485066 1.368930 -1.686473 2.065104 11.053867 -0.638402 -37.170306 35.998044 66.046932 -170.216305 63.492100 171.176015 0.000000 0.000000 0.000000 
-2.115793 80.147095 1.116161 0.000000 0.000000 0.000000 1.544060 -34.045208 3.328808 -42.469495 0.178497 18.655898 47.528298 -10.022067 -1.711788 -8.228117 -8.294215 -14.993186 0.000000 0.000000 0.000000 6.554245 -42.423647 -3.193561 -24.653288 -15.530873 -24.083677 47.069863 -1.350904 -0.159811 -11.539776 -4.721376 10.412604 0.000000 0.000000 0.000000 -1.381741 -19.730794 0.926893 -2.997957 -12.631358 -0.149042 9.546065 3.458389 -2.690866 2.781069 2.297111 -0.904224 0.000000 0.000000 0.000000 4.215727 2.195883 -0.132257 -0.057499 2.430715 0.018718 0.000000 0.000000 0.000000 2.161534 1.608192 -0.788198 1.048843 3.888057 -6.821485 -52.340344 -18.991908 -58.760807 -56.044328 -80.358064 -51.776970 0.000000 0.000000 0.000000 2.628153 1.222409 -1.427343 2.907482 11.531793 -0.988063 -35.283767 35.802441 64.937518 -169.702580 62.532048 170.915730 0.000000 0.000000 0.000000 
-2.247796 80.447800 0.992725 0.000000 0.000000 0.000000 0.894478 -34.281426 2.888747 -42.897239 0.069351 18.290389 46.332663 -10.230692 -1.592089 -9.149391 -8.465105 -14.994307 0.000000 0.000000 0.000000 6.142656 -41.881805 -3.389245 -24.892461 -15.270034 -24.077156 47.475053 -1.463136 -0.037203 -11.062999 -4.834521 10.467413 0.000000 0.000000 0.000000 -3.423734 -24.299303 0.776746 -0.371200 -10.090653 -1.548098 8.149116 3.381518 -2.424305 2.962469 2.754089 -0.764028 0.000000 0.000000 0.000000 3.350195 2.590583 -0.355832 0.063876 2.541517 -0.113289 0.000000 0.000000 0.000000 2.218874 1.497388 -1.047454 1.598249 2.833098 -6.765477 -51.340555 -19.460973 -56.568525 -50.029886 -81.273527 -46.087794 0.000000 0.000000 0.000000 2.530111 1.224043 -1.420143 2.984814 11.142723 -1.351255 -36.327454 38.188954 66.185298 -170.889694 62.554117 173.123903 0.000000 0.000000 0.000000 
-2.233213 80.736214 1.152447 0.000000 0.000000 0.000000 0.710222 -33.477892 2.917421 -43.490618 0.250839 18.604546 46.192737 -10.014543 -1.527207 -9.483338 -8.125927 -14.848954 0.000000 0.000000 0.000000 5.707295 -41.719082 -3.521001 -25.747040 -14.883151 -24.253703 47.294272 -0.638374 0.033286 -11.277718 -4.192619 11.108199 0.000000 0.000000 0.000000 -3.353590 -24.026172 0.776730 -0.892662 -11.102446 -2.356488 8.024945 4.562538 -2.564292 3.271787 2.505569 -0.808184 0.000000 0.000000 0.000000 3.552327 2.530367 -0.293619 0.092982 2.520063 -0.133793 0.000000 0.000000 0.000000 2.111912 1.375460 -1.090007 1.476721 1.626468 -6.643385 -51.982456 -19.493715 -54.995607 -56.797302 -81.634940 -52.596401 0.000000 0.000000 0.000000 2.648552 1.216039 -1.483276 3.363031 10.242748 -1.863583 -35.622858 38.197106 64.759086 -170.926864 62.997697 173.106910 0.000000 0.000000 0.000000 
-2.494675 80.635452 0.377565 0.000000 0.000000 0.000000 1.272015 -34.479225 3.346863 -42.737310 -0.079041 18.688335 45.620722 -10.279422 -1.314895 -9.798391 -8.437622 -14.829486 0.000000 0.000000 0.000000 5.951514 -41.141119 -2.820657 -25.694543 -14.881534 -23.638214 47.033748 -0.306013 0.248594 -11.264997 -3.979627 11.582749 0.000000 0.000000 0.000000 -3.935656 -26.932150 0.454013 1.248368 -5.877228 -2.707380 7.859512 4.480624 -2.023635 2.412566 2.533838 -0.810036 0.000000 0.000000 0.000000 3.463719 2.554869 -0.587309 0.075346 2.533952 -0.194186 0.000000 0.000000 0.000000 1.989466 1.070277 -1.334585 1.190942 2.273789 -7.188258 -52.072198 -20.053208 -55.254144 -75.864906 -83.209326 -71.610756 0.000000 0.000000 0.000000 2.557697 1.284063 -1.708519 2.724610 10.236686 -1.894010 -35.802322 36.668444 63.524571 -170.431033 62.194391 172.224982 0.000000 0.000000 0.000000 
-2.163003 80.870705 0.240177 0.000000 0.000000 0.000000 0.753294 -33.939203 2.759503 -43.085906 0.147132 18.268222 45.668291 -10.115152 -1.489146 -9.820159 -8.158310 -15.033666 0.000000 0.000000 0.000000 6.055839 -41.723020 -2.452236 -25.779557 -15.118240 -23.508604 47.286038 -0.211898 -0.139726 -11.048969 -3.657820 11.088575 0.000000 0.000000 0.000000 -3.200786 -26.828348 1.241335 0.965994 -5.191124 -3.099133 7.676873 4.440642 -2.297497 2.317601 2.605985 -0.709077 0.000000 0.000000 0.000000 3.078788 2.514391 -0.514848 -0.006694 2.458016 -0.197218 0.000000 0.000000 0.000000 2.078839 1.208339 -1.356338 1.588315 2.010428 -6.933809 -53.243637 -19.662095 -54.619312 -72.561334 -82.673272 -68.293627 0.000000 0.000000 0.000000 2.055851 1.263146 -1.743296 2.890829 10.406031 -2.575251 -36.521291 39.267007 63.920366 -171.246735 62.618348 173.251491 0.000000 0.000000 0.000000 
